<svg width="69" height="63" viewBox="0 0 69 63" fill="none" xmlns="http://www.w3.org/2000/svg">
<path d="M64.7281 0.338574C63.9683 0.371907 63.2287 0.583372 62.5617 0.850449C61.9016 1.11574 58.1011 2.73787 52.4888 5.1374C46.8765 7.53693 39.5809 10.6616 32.3489 13.7601C17.885 19.9569 3.67174 26.0542 3.67174 26.0542L3.77533 26.0146C3.77533 26.0146 2.91749 26.3013 2.04775 26.9073C1.61289 27.2103 1.14504 27.6015 0.761973 28.1718C0.378906 28.7421 0.0988588 29.5503 0.204395 30.4051C0.575087 33.4077 3.68697 34.2594 3.68697 34.2594L3.69916 34.2655L17.5868 39.0187C17.9409 40.1999 21.799 53.0769 22.6477 55.8039C23.1164 57.3116 23.5551 58.1813 24.0127 58.7746C24.2417 59.0715 24.4816 59.3013 24.747 59.4693C24.8524 59.536 24.9633 59.5861 25.073 59.6308C25.0753 59.6318 25.0767 59.6297 25.0791 59.6308C25.0926 59.6367 25.1052 59.6372 25.1187 59.6429L25.0821 59.6338C25.1076 59.6441 25.1328 59.6614 25.1583 59.6704C25.2078 59.6877 25.2382 59.6871 25.3015 59.7008C26.892 60.2562 28.2082 59.2255 28.2082 59.2255L28.2631 59.1829L36.7943 51.2701L50.6393 62.0652L50.813 62.1444C53.2364 63.2204 55.428 62.6201 56.6417 61.6326C57.8554 60.645 58.3327 59.3718 58.3327 59.3718L58.3845 59.2377L68.558 6.21295C68.8183 5.02667 68.8553 4.00126 68.6098 3.07467C68.3643 2.14808 67.7678 1.3426 67.0193 0.896152C66.2708 0.449702 65.4879 0.30524 64.7281 0.338574ZM64.8103 3.51037C65.1189 3.49608 65.3476 3.53136 65.4197 3.57436C65.4918 3.61736 65.5242 3.6117 65.5934 3.87295C65.6626 4.1342 65.7001 4.68447 65.5111 5.54568L65.505 5.56396L55.3894 58.281C55.3654 58.3341 55.1547 58.8217 54.6734 59.2133C54.1824 59.6128 53.6363 59.9247 52.1871 59.3169L37.0472 47.5103L36.6206 47.1751L36.6115 47.1843L32.0839 43.787L57.5283 13.8515C57.7238 13.622 57.8487 13.3409 57.8878 13.042C57.9269 12.7431 57.8786 12.4393 57.7487 12.1673C57.6188 11.8953 57.4129 11.6667 57.1559 11.5092C56.8989 11.3517 56.6017 11.2721 56.3004 11.2799C56.006 11.2876 55.7197 11.3784 55.4747 11.5419L18.6563 36.0876L4.74729 31.3253C4.74729 31.3253 3.36613 30.5567 3.30002 30.0212C3.29635 29.9916 3.28005 30.0184 3.35182 29.9115C3.42359 29.8047 3.60399 29.6243 3.83018 29.4667C4.28254 29.1515 4.79908 28.9609 4.79908 28.9609L4.85088 28.9426L4.90268 28.9213C4.90268 28.9213 19.1167 22.8237 33.5799 16.6272C40.8115 13.5289 48.1057 10.4065 53.7167 8.00756C59.3261 5.60924 63.3794 3.88295 63.7226 3.74498C64.1133 3.58852 64.5018 3.52466 64.8103 3.51037ZM47.9367 20.3169L28.6409 43.0192L28.6317 43.0283C28.6016 43.0646 28.5731 43.1022 28.5464 43.1411C28.5158 43.1833 28.4873 43.227 28.4611 43.2721C28.3527 43.4561 28.2832 43.6604 28.257 43.8723C28.257 43.8764 28.257 43.8804 28.257 43.8845L25.7433 55.1884C25.7015 55.0663 25.6723 55.0216 25.6275 54.8776V54.8746C24.8291 52.3092 21.1891 40.165 20.6855 38.4855L47.9367 20.3169ZM30.8194 46.7394L34.2867 49.3415L29.1924 54.0641L30.8194 46.7394Z"/>
</svg>
